<svg width="392" height="781" viewBox="0 0 392 781" fill="none" xmlns="http://www.w3.org/2000/svg">
<path fill-rule="evenodd" clip-rule="evenodd" d="M270.464 389.527C276.719 389.667 274.037 331.309 269.86 320.555C269.275 318.376 268.792 315.398 268.889 312.723C274.055 313.24 273.499 309.704 273.232 305.441C273.32 302.055 273.555 295.07 268.374 297.79C252.841 266.692 269.636 186.303 228.737 178.731C223.809 177.534 218.716 176.296 214.566 172.879C210.176 164.763 207.94 163.726 200.665 163.201C199.317 155.891 196.799 148.081 189.295 145.237C182.425 142.544 174.429 142.33 167.265 143.766C161.336 145.7 160.793 156.722 159.476 162.156C151.49 160.038 141.648 155.584 137.349 165.681C135.266 165.059 133.337 165.463 131.221 166.155C113.485 169.013 96.2775 177.036 89.6994 193.777C85.6361 203.823 88.5198 214.759 90.0436 225.164C91.4649 236.493 87.7172 246.989 85.98 257.887C83.3934 272.893 82.9256 284.929 84.6136 296.083C80.1519 297.098 79.8229 301.156 81.628 305.402C82.158 306.839 82.692 308.354 83.8641 309.167C86.2484 310.668 89.3301 308.938 91.9213 308.673C92.4603 314.666 93.504 320.545 95.2309 327.228C94.7307 329.228 94.1572 331.462 93.6421 333.471L93.4683 333.282C87.5524 358.062 69.9578 382.132 75.4262 408.468C75.7477 409.345 76.3579 409.163 76.8264 409.147C79.541 410.18 82.0344 409.525 84.7719 409.63C91.265 409.634 97.5382 410.466 103.358 411.19C104.422 418.139 107.88 429.516 114.048 432.166C114.152 432.201 115.98 431.82 116.133 431.809C99.7133 498.385 70.1709 559.947 58.436 627.865C58.3665 628.694 59.7151 628.255 60.1575 628.356C60.097 630.24 61.3147 630.694 63.0198 631.364C60.8225 635.957 58.8432 640.545 56.6559 645.15C55.6416 647.43 53.9886 649.682 53.6874 652.119C51.2659 653.666 49.6349 656.691 49.6781 659.515C43.1481 662.275 44.9229 675.907 43.4331 682.66C41.9267 692.718 34.7613 699.743 29.8483 707.99C28.8471 709.646 27.7809 711.815 27.7336 713.894C24.6879 715.322 23.5522 718.441 23.7537 723.691C23.7429 729.834 25.4755 732.173 30.1474 732.321C42.8372 733.589 57.645 733.073 70.4084 731.631C79.9564 730.417 88.4172 731.424 86.2825 719.951C85.8432 717.174 86.687 713.434 85.0432 711.186C84.0297 704.495 84.6194 697.751 86.8048 691.14C88.1334 685.574 90.3781 674.077 89.448 666.607C89.0178 663.152 81.9653 661.251 80.7239 661.083C81.1188 658.482 80.9449 653.938 79.5457 652.131C82.1151 651.772 82.761 651.093 83.2961 648.239C84.575 643.617 84.7451 638.599 87.912 634.705C93.6078 634.779 99.2846 633.333 104.978 633.157L105.261 632.503C108.628 632.46 111.976 631.865 115.172 630.699C115.881 631.034 116.787 631.322 117.186 630.249L119.087 624.304C141.217 553.878 165.747 483.281 189.666 413.371C191.062 409.972 192.741 406.359 194.924 403.33C195.664 446.106 204.625 488.836 205.394 531.59C206.434 561.003 206.166 590.106 208.933 619.623C209.645 625.87 210.402 625.663 211.335 625.279C211.708 625.338 212.588 625.525 212.969 625.606C212.345 631.813 211.628 641.89 208.966 648.239C203.081 649.147 204.135 653.662 205.44 657.405C204.036 658.604 204.236 661.399 204.653 662.946C199.116 662.952 197.909 667.455 198.29 670.297C198.817 675.049 198.522 682.445 201.693 686.504C203.561 691.68 206.601 696.565 207.788 702.141C208.534 706.244 208.246 712.22 208.966 716.29C207.155 717.126 207.922 718.438 207.617 720.975C206.05 732.587 211.566 730.613 221.321 731.413C227.168 732.704 271.679 735.273 269.755 727.547C270.083 724.401 268.62 723.019 267.993 719.921C267.712 719.099 262.167 709.584 258.859 705.982C247.765 695.559 248.25 681.565 248.601 665.446C247.949 661.077 244.588 656.894 240.3 657.364C241.531 652.698 239.249 648.641 234.48 647.292C234.956 642.009 235.458 634.831 237.202 630.261L235.559 628.588L237.758 628.851L238.488 627.013L239.284 629.027C243.058 629.027 247.317 628.19 250.933 627.796C251.511 627.829 251.253 627.044 251.348 626.741C254.762 626.034 255.136 624.22 254.533 619.897C255.328 549.702 254.983 480.166 253.896 409.841C259.232 410.079 264.436 408.132 269.68 406.835C271.543 408.005 272.071 403.841 271.853 402.942C271.558 398.289 270.982 393.751 270.464 389.527Z" fill="white"/>
<path fill-rule="evenodd" clip-rule="evenodd" d="M160.873 152.367C161.667 152.994 161.584 154.729 161.662 155.701L161.667 155.765C161.917 158.7 161.579 161.649 160.864 164.499L160.753 164.933C160.411 166.295 160.071 167.928 159.001 168.862C157.786 169.923 155.855 169.236 155.812 167.525C155.789 166.73 156.055 165.964 156.391 165.219C154.036 166.127 151.682 167.026 149.318 167.902C147.807 180.391 165.254 195.681 175.356 201.034C190.066 209.176 202.443 196.704 204.326 182.043C204.643 180.096 204.855 178.094 204.896 176.12L204.899 175.93C204.907 174.298 204.636 172.115 205.7 170.758C204.917 170.739 204.221 170.849 203.455 170.969L203.492 171.033C203.926 171.81 204.54 173.742 203.165 173.889C200.195 173.577 198.814 168.372 198.091 165.876L198.062 165.767C197.595 163.896 197 157.106 198.407 156.292C198.84 157.967 198.67 159.786 199.196 161.467C200.394 161.949 202.675 162.08 203.204 162.168C209.374 162.24 212.872 166.669 215.373 171.853C222.705 177.87 233.243 176.836 241.16 181.791C265.385 199.351 257.473 267.708 269.54 296.789C271.955 295.79 274.418 297.791 274.74 300.233C275.074 302.112 274.974 304.123 275.001 306.026L275.012 306.264C275.21 310.156 275.883 314.531 270.625 314.616C270.634 316.789 271.043 318.892 271.568 320.989C274.479 333.686 275.749 346.763 276.036 359.779L276.05 360.735C276.145 367.576 276.229 388.74 272.296 391.244L272.479 392.735C272.934 396.463 273.363 400.201 273.603 403.948C273.98 405.893 272.696 410.553 270.075 409.32C265.269 410.508 260.529 412.262 255.534 412.271C256.744 452.527 256.143 492.824 256.322 533.096C255.936 562.782 257.541 592.713 256.138 622.285L256.189 622.702C256.585 626.023 256.704 628.91 252.866 630.047C252.81 630.86 252.185 631.294 251.444 631.389C249.34 631.672 247.236 631.941 245.13 632.199C243.168 632.345 241.069 632.833 239.113 632.6C239.302 632.792 238.789 632.821 238.733 632.682C236.951 637.155 236.433 642.031 235.992 646.803C240.319 648.452 242.681 652.162 241.974 656.813C246.34 656.99 249.529 661.841 250.141 665.929C250.533 668.751 250.219 671.552 250.092 674.379C249.488 684.037 250.908 694.442 257.144 702.146C261.191 706.982 266.461 711.356 268.227 717.654C268.707 717.878 269.101 718.311 269.274 718.988L270.395 723.385L270.952 725.583C271.36 727.186 271.722 728.826 271.504 730.485L271.481 730.646C270.389 741.156 227.299 736.09 218.889 735.335C215.509 734.805 211.799 735.094 208.755 733.304C205.021 730.84 204.555 725.842 205.195 721.748L205.249 721.364C205.508 719.534 205.888 717.614 207.625 716.59C207.041 712.797 207.267 708.916 206.571 705.137C205.521 699.791 202.343 695.152 200.72 690.019C198.353 687.388 198.274 683.285 197.779 679.92C197.404 676.656 197.097 673.369 196.971 670.085C196.627 665.744 198.512 662.164 203.077 661.596C202.865 660.774 203.445 660.063 204.022 659.536C202.661 654.702 202.285 648.066 208.19 646.417C210.427 640.871 211.077 634.862 211.673 628.947C211.602 628.932 211.531 628.92 211.46 628.908C208.755 630.034 208.02 625.213 207.767 622.666L207.711 622.059C204.926 592.624 205.183 563.015 204.137 533.49L204.035 531.355C203.118 511.901 202.572 492.276 199.208 473.082C195.821 451.689 194.936 429.947 193.779 408.33C192.415 410.448 191.682 412.88 190.579 415.137C176.263 457.194 161.574 499.124 147.421 541.237C137.163 571.728 127.362 602.381 117.533 633.014C117.031 634.582 115.451 634.907 114.294 634.405C111.35 635.426 108.261 636.006 105.151 636.106C104.964 636.537 104.579 636.852 104.017 636.791C102.354 636.608 100.44 637.128 98.7766 637.322C94.9714 637.698 91.2772 638.282 87.4372 638.337C85.0583 641.344 84.9089 645.422 83.812 649.001C83.1806 650.826 83.2797 654.918 81.0993 655.432C81.8809 656.636 81.9832 658.081 81.8565 659.57C82.5347 659.724 83.2225 660.016 83.8605 660.314C84.4818 660.628 85.3026 660.601 85.7307 661.235C97.9092 663.442 89.0091 686.566 86.8923 694.214C84.8146 700.467 84.1641 706.997 85.1122 713.525C86.5615 715.527 86.0762 718.504 86.298 720.876C86.4146 722.994 86.6288 725.143 86.6096 727.262C86.3729 736.068 75.5014 734.636 69.368 735.778C65.5382 736.224 61.6909 736.534 57.8438 736.775C48.0868 737.382 38.2749 737.428 28.5378 736.484C22.2509 736.285 20.8991 732.184 20.9091 726.575L20.8995 726.343C20.7578 722.536 21.3717 717.939 24.9875 715.96C25.1677 713.949 26.1881 711.917 27.23 710.16C32.0749 702.014 39.3491 694.877 40.7799 685.102C42.1833 678.703 40.5933 664.618 47.0986 661.281C47.2496 658.4 49.0195 655.463 51.2111 653.906C51.634 651.505 53.2274 649.299 54.2133 647.094C56.224 642.882 58.084 638.605 60.084 634.39C59.0368 633.947 57.9241 633.132 57.778 631.975C56.7726 631.987 55.7792 631.337 55.9009 630.114C56.256 626.562 57.0332 623.068 57.7672 619.578L57.8587 619.141C70.9179 556.018 97.8856 496.991 113.664 434.677C111.541 435.061 109.556 432.634 108.382 431.053C104.591 425.949 102.352 419.773 101.368 413.507L99.5853 413.286C93.6425 412.557 87.6702 411.918 81.6777 412.09L80.2336 412.138C78.6291 412.187 77.0219 412.174 75.4967 411.597C74.4326 411.695 73.3247 411.124 73.0618 409.93C68.6235 387.812 79.5329 366.821 87.3472 346.834C89.188 341.92 90.4981 336.935 91.7472 331.846C91.7883 331.681 92.0465 331.716 92.0394 331.886C91.796 337.543 90.3932 343.247 88.9686 348.701C84.2909 367.191 74.5458 385.323 76.9284 404.898C84.3345 399.065 93.1307 395.014 102.371 393.3C102.904 390.983 103.493 388.684 103.936 386.353C103.5 382.768 103.203 379.166 102.824 375.565C101.689 364.791 99.9551 354.045 97.6444 343.461C94.0598 332.812 90.9303 322.018 89.8112 310.79L89.6076 310.83C87.1223 311.334 84.384 312.429 82.0783 310.847C80.6149 309.832 79.9816 308.151 79.3904 306.536C77.7013 302.62 77.389 297.474 82.1682 295.836C80.3866 283.387 81.5441 270.391 83.6975 258.059C85.4216 247.249 89.2043 236.599 87.7884 225.532C86.2164 214.898 83.2852 203.76 87.5224 193.351C94.4861 175.978 112.121 167.736 129.464 165.083L129.745 165.001C131.89 164.365 133.844 163.696 136.079 164.177C141.352 154.393 149.903 158.373 158.254 160.553C158.817 158.894 159.287 157.197 159.729 155.501C160.004 154.637 159.913 152.644 160.873 152.367ZM209.205 721.337L209.183 721.764C208.963 726.344 209.211 730.269 214.891 730.239C218.799 730.656 222.708 731.063 226.622 731.416L228.09 731.546C239.708 732.582 251.465 733.089 263.061 731.533L263.544 731.467C264.513 731.33 266.308 731.357 267.075 730.64C268 729.396 266.929 727.023 266.705 725.579C248.612 725.368 230.495 724.701 212.39 724.931C210.486 724.941 209.626 723.314 209.802 721.832C209.587 721.686 209.385 721.519 209.205 721.337ZM25.5071 719.04C24.6174 722.168 24.8365 725.124 25.3391 728.257C25.5903 731.537 27.1509 731.747 29.9748 731.824C40.9992 732.841 52.1033 732.628 63.1306 731.775C69.041 731.138 75.1145 731.162 80.9148 729.855C83.6821 728.628 82.0846 724.772 82.1788 722.408C69.1522 730.802 49.4514 729.737 35.2463 724.88L35.0187 724.782C31.6585 723.371 27.3631 722.482 25.5071 719.04ZM47.0843 662.556C45.5867 664.246 45.5555 669.057 45.4927 670.694L45.4848 670.878C45.3166 674.317 45.3433 677.764 45.1943 681.203C45.3041 695.686 36.9406 702.91 30.7295 714.554C29.0306 717.38 31.502 717.781 33.5123 718.697C46.5294 724.755 61.9268 725.681 75.5258 721.043C82.3615 719.057 80.8692 714.457 80.2887 708.83C79.7172 697.332 85.7675 686.973 87.5571 675.85L87.6052 675.563C88.1388 672.297 89.0608 663.928 83.8582 665.717C82.7262 666.414 81.662 665.54 81.5284 664.472C81.3935 664.494 81.2552 664.507 81.1217 664.509C80.5201 668.226 79.8968 671.939 79.298 675.656C79.8018 675.976 80.2741 676.338 80.6929 676.752C81.2018 677.256 80.8463 678.315 80.0793 678.251C79.6851 678.217 79.2955 678.157 78.9081 678.084C78.6011 681.315 73.4688 679.502 74.9514 676.912C67.5723 674.362 59.4427 674.565 51.9492 676.52L51.9182 676.534C51.3381 676.764 47.1667 677.6 48.5087 678.251C49.068 678.319 47.7945 679.05 47.5713 677.918C47.4992 676.498 50.7415 675.8 51.7349 675.211C49.2294 671.625 47.5174 666.977 47.0843 662.556ZM236.128 651.202C229.177 647.438 220.634 648.835 213.095 649.501L212.778 649.537C210.859 649.743 208.185 649.871 207.304 651.847C206.029 655.013 208.143 662.097 208.807 665.619L209.033 666.543C209.583 668.797 210.106 671.033 210.295 673.364C210.299 673.438 210.229 673.49 210.163 673.49C207.522 670.668 206.335 666.873 205.101 663.253C204.575 663.553 204.061 663.878 203.577 664.235C201.684 670.741 201.05 677.666 202.549 684.302L202.603 684.536C204.454 692.737 210.219 699.443 210.767 708.013C211.133 711.477 211.051 715.028 212.047 718.392C212.614 718.517 213.109 718.935 213.331 719.461L216.58 719.465C232.287 719.491 247.999 719.634 263.696 720.28C263.19 715.866 259.294 711.949 256.55 708.923C248.13 700.3 244.488 687.913 245.875 675.974C246.605 670.001 249.938 660.617 241.785 658.411C241.189 663.278 240.384 668.13 239.939 673.017C241.478 673.759 241.383 675.716 239.503 675.678C238.659 678.517 235.83 677.37 236.136 674.691C225.788 670.869 219.851 669.588 209.771 675.346C209.488 675.305 210.545 674.173 210.679 673.972C213.865 670.537 218.757 668.922 223.348 668.864C227.898 668.863 232.177 670.578 236.47 671.904C237.115 667.293 237.549 662.653 238.061 658.026L238.171 657.034C238.439 654.605 238.342 652.598 236.128 651.202ZM69.8355 710.753C71.35 710.416 72.7429 709.904 74.2815 710.251C79.6967 714.319 57.5704 715.466 55.6865 715.177C50.8905 715.036 46.0924 714.427 41.4768 713.072L41.155 712.976C40.7005 712.85 36.0998 711.568 36.9722 710.997C43.215 711.55 49.3268 712.696 55.6865 712.398C58.8591 712.331 62.0439 712.107 65.1824 711.63C66.7432 711.391 68.2966 711.1 69.8355 710.753ZM216.124 705.714C215.132 704.228 219.965 706.201 220.594 706.218C224.596 707.205 228.669 707.953 232.781 708.264C235.537 708.473 238.322 708.518 241.083 708.382C243.128 708.311 245.151 708.009 247.183 707.801L247.256 707.798C248.463 707.756 250.882 708.504 249.391 709.941C247.073 711.739 243.643 711.191 240.864 711.455C232.426 711.428 223.491 710.069 216.124 705.714ZM57.4888 694.913C59.9212 694.472 73.3109 694.329 71.9761 698.438C71.6522 699.219 70.912 699.477 70.1329 699.355C61.8463 697.339 52.9072 696.284 44.6469 699.064C44.513 699.111 44.4205 698.891 44.552 698.833C48.6133 696.797 52.9592 695.374 57.4888 694.913ZM231.285 690.895C233.472 690.729 235.671 690.788 237.858 690.952L238.753 691.022C239.676 691.097 240.619 691.192 241.5 691.46L241.675 691.516C242.876 691.903 245.583 693.967 243.528 694.96C241.322 695.674 239.457 694.824 237.329 694.278C231.397 692.872 225.161 693.348 219.284 694.785L220.112 695.051C220.163 695.014 220.229 695.1 220.18 695.142C219.586 695.661 218.77 695.477 218.349 694.832C218.276 694.721 218.322 694.544 218.439 694.482C222.423 692.392 226.815 691.235 231.285 690.895ZM46.5295 690.371C53.2288 687.405 60.9907 687.077 68.1753 687.937L68.6871 688C70.9286 688.263 73.8522 688.384 75.1345 690.472C75.5776 691.196 75.1198 692.025 74.4039 692.286C72.2956 693.057 69.8167 691.513 67.7912 690.94C61.8009 689.299 55.4036 689.127 49.3125 690.26C49.3551 690.486 48.3464 690.387 48.1267 690.467C47.8514 690.451 46.0242 691.056 46.5295 690.371ZM215.47 685.74C221.315 682.897 228.072 682.22 234.382 683.687L234.644 683.762C237.44 684.547 241.941 685.473 242.943 688.434C243.16 689.101 242.69 690.002 241.986 690.137C239.602 690.593 237.438 688.852 235.281 688.015C228.934 685.629 221.749 685.059 215.185 686.814C215.142 687.072 215.098 687.328 215.051 687.587C215.164 687.513 215.28 687.678 215.19 687.769C214.143 688.503 213.053 686.651 215.47 685.74ZM61.5883 680.743C66.3172 680.428 71.086 681.03 75.6513 682.277L76.5098 682.514C77.7575 682.864 79.3738 683.414 79.5554 684.763C79.626 685.3 79.4921 685.669 79.0562 686.001C77.467 687.19 74.0103 684.699 72.0342 684.406C64.8603 682.25 57.1598 682.281 49.8928 683.93L49.6453 683.987L49.8206 685.236C49.9927 685.832 48.3957 684.425 49.0025 683.785C52.8386 681.831 57.3149 681.094 61.5883 680.743ZM219.929 678.512C223.724 677.827 227.64 677.696 231.477 678.041L231.93 678.084C234.222 678.286 241.646 678.581 239.89 682.456C239.596 683.103 238.741 683.187 238.188 682.906C236.333 681.966 234.304 681.626 232.257 681.316C225.027 680.31 217.64 680.722 210.581 682.67C210.735 682.911 210.418 683.197 210.119 683.253C209.374 683.391 209.374 682.502 209.693 682.03C210.073 681.471 210.83 681.267 211.414 681.02C214.132 679.836 217.015 679.035 219.929 678.512ZM76.1815 656.953L75.7493 656.851C68.5065 655.146 52.4486 652.089 50.7857 662.069C50.1955 666.465 52.1424 670.752 51.9985 675.105C59.5089 672.049 67.8141 672.081 75.6169 674.1C76.3082 669.583 76.9679 665.06 77.6741 660.545L77.7882 660.005C78.1026 658.482 78.2093 657.291 76.1815 656.953ZM60.0495 658.77C61.6278 657.416 64.26 657.436 65.8081 658.913C67.2239 659.21 68.2224 660.714 68.2453 662.003C70.3979 665.787 67.8021 671.016 63.6923 671.961C54.412 673.917 50.2634 661.167 60.0495 658.77ZM220.835 652.731C228.6 651.344 231.421 661.197 225.048 665.193C216.045 669.711 210.047 655.508 220.835 652.731ZM63.8915 630.845C64.0059 631.598 63.6353 632.135 63.1927 632.642C61.6007 639.17 59.2048 645.245 56.8425 651.503C64.5277 650.229 71.7887 651.341 78.5886 653.428C78.6699 651.519 79.5399 649.539 80.1443 647.739C81.3209 644.32 82.7437 640.99 84.3845 637.773L84.5907 637.372C85.1799 636.227 85.7473 635.03 86.4434 633.935C78.9218 632.907 71.4001 631.982 63.8915 630.845ZM215.376 629.454L215.175 630.363C214.312 634.303 213.493 638.28 212.208 642.108L212.19 642.187C211.993 643.153 211.551 647.626 211.273 644.469C211.058 644.944 210.83 645.414 210.586 645.877L212.449 645.655C219.395 644.84 226.642 644.189 233.454 645.934C232.748 640.455 233.788 635.221 235.307 630.04C228.649 629.887 222.049 629.936 215.376 629.454ZM89.2756 636.264C89.0321 636.493 88.7937 636.727 88.567 636.971C88.874 636.892 89.1808 636.815 89.4654 636.749C89.4537 636.569 89.3267 636.434 89.2756 636.264ZM239.333 631.239L239.116 631.749C239.228 631.682 239.352 631.618 239.486 631.561C239.425 631.463 239.374 631.357 239.333 631.239ZM59.778 630.121C59.6993 630.413 59.6392 630.735 59.4977 631C59.6097 631.02 59.7241 631.042 59.8388 631.067C59.9773 630.786 60.1236 630.513 60.2817 630.244C60.1137 630.205 59.9458 630.166 59.778 630.121ZM117.695 307.031C117.013 307.361 116.302 307.444 115.363 307.484C107.726 307.801 100.114 308.685 92.6156 310.194C93.0295 316.263 94.8752 322.142 96.6314 327.927L96.9957 329.195C102.93 349.925 108.11 371.586 107.067 393.268C107.125 393.29 107.181 393.32 107.235 393.347C107.14 393.613 107.072 393.885 106.977 394.148L106.916 394.305L106.56 395.19C106.363 395.681 106.172 396.175 106.005 396.68C105.714 396.785 105.356 396.862 105.014 396.912C103.282 408.391 104.929 421.261 112.736 430.238C109.953 424.634 108.982 418.268 109.104 412.042L109.126 411.09C109.158 409.914 109.229 408.742 109.587 407.626C109.602 407.567 109.68 407.577 109.699 407.626C111.352 412.732 111.46 418.28 113.084 423.424L113.208 423.818C114.492 427.849 116.637 433.039 120.361 435.123C121.047 435.327 122.102 435.085 122.458 435.876L122.482 435.933L122.504 435.925C120.841 430.476 119.771 424.842 119.404 419.154L119.38 418.766C119.263 416.782 119.005 414.654 119.5 412.717C120.442 414.489 120.208 417.383 120.646 419.527L120.664 419.649C121.01 421.966 124.344 439.675 126.534 437.309C126.986 436.656 126.869 435.395 126.883 434.618L126.884 434.542C126.919 433.419 126.906 432.296 126.868 431.174C126.631 424.56 125.604 417.773 127.617 411.331C127.954 410.245 129.78 410.041 130.001 411.331C130.888 416.491 131.735 421.656 132.582 426.821C133.2 429.976 133.174 433.534 135.051 436.255C135.073 430.315 134.744 424.392 134.459 418.458L134.383 418.211C134.158 417.462 133.936 416.49 134.452 415.853C134.659 414.499 136.636 414.654 136.804 416.073C136.841 416.368 136.867 416.668 136.897 416.966C137.552 417.788 138.161 418.628 138.935 419.335C144.105 408.773 127.189 390.532 124.854 378.605C117.976 355.378 121.93 331.025 123.931 307.373C121.862 307.128 119.777 307.062 117.695 307.031ZM216.128 173.353C219.744 180.615 222.398 188.301 224.237 196.211C224.803 198.653 221.53 200.152 220.207 198.013L220.168 197.947C218.542 195.232 216.118 192.84 213.051 191.905C210.961 200.674 211.979 209.94 213.065 218.794C214.991 231.13 216.523 243.517 216.752 256.018L216.763 256.687C217.434 299.376 223.703 341.872 230.57 383.667C241.547 385.432 251.596 390.409 261.714 394.785C263.472 395.472 265.269 396.07 267.11 396.483C262.026 349.099 242.692 304.66 236.718 257.448C235.139 245.169 235.065 232.701 237.246 220.493C237.283 220.259 237.614 220.338 237.628 220.545C237.868 225.559 238.725 230.508 239.233 235.496C239.579 232.647 240.377 229.762 241.023 227.032C241.812 224.361 242.103 220.073 244.415 218.331L244.561 217.827C244.621 217.61 244.943 217.701 244.892 217.918C244.868 218.021 244.843 218.122 244.821 218.225C246.306 218.621 244.919 220.383 244.551 221.227C242.168 227.626 241.459 234.552 239.832 241.148C242.186 261.738 246.425 282.067 251.646 302.08C256.443 300.813 261.256 299.594 266.065 298.355C255.338 263.355 261.611 224.294 245.539 190.874C239.518 179.659 224.689 181.182 216.128 173.353ZM134.627 166.954C132.378 166.833 130.028 168.057 127.868 168.478C125.005 169.034 122.156 169.475 119.356 170.33C105.023 174.267 91.1945 185.02 88.5979 200.512C86.8132 211.15 91.2325 221.514 91.0771 232.123C90.6108 242.632 87.1527 252.734 85.8052 263.138C84.1843 273.776 83.6262 284.912 85.0165 295.602C97.8738 291.947 111.302 291.718 124.486 293.606C123.387 277.402 124.83 261.119 125.628 244.927C126.203 234.528 127.186 224.082 126.838 213.663C126.831 213.432 127.206 213.375 127.242 213.607C131.196 234.886 128.877 256.488 128.477 277.948C128.223 283.37 128.893 288.844 128.623 294.236C134.617 295.529 134.4 302.534 132.567 307.151C132.242 308.262 131.14 308.069 130.247 307.934C129.28 308.953 126.972 307.624 125.657 307.624C124.628 334.262 118.374 362.714 131.189 387.611C136.547 387.641 141.705 385.788 146.912 384.737L147.196 384.681L147.203 384.678C147.969 383.68 148.343 382.074 148.445 380.899C149.173 360.385 146.896 339.824 148.228 319.308C149.86 296.536 154.929 273.902 152.585 250.976C150.963 230.485 146.513 210.366 144.368 189.937L144.26 188.88C144.126 187.62 144.075 186.228 143.454 185.268C139.835 188.572 136.799 192.502 134.625 196.922C133.421 199.058 130.197 198.108 130.147 195.697C129.684 191.392 129.615 187.071 130.085 182.765L130.128 182.385C130.71 176.995 132.335 171.851 134.627 166.954ZM269.153 314.793C264.492 315.04 259.826 315.558 255.157 315.497L255.627 317.264C261.279 338.472 267.297 359.643 270.845 381.343L270.974 379.308C271.102 377.273 271.225 375.236 271.305 373.196C272.312 353.694 270.774 334.218 269.153 314.793ZM147.83 179.441C147.849 180.322 147.893 181.201 147.962 182.078C150.116 185.316 149.924 189.62 150.406 193.346C153.109 213.464 157.09 233.499 158.431 253.827C159.679 270.088 157.641 286.292 155.559 302.39C152.99 320.826 153.259 339.453 153.856 358.014C163.726 349.06 177.754 347.489 190.206 344.707L190.799 344.587C200.374 342.621 209.929 339.772 218.064 334.175C212.214 292.23 213.591 249.745 207.609 207.836C207.424 204.536 207.386 201.217 207.66 197.92C207.397 194.35 207.319 190.76 207.312 187.181C204.69 197.755 195.907 207.971 184.399 207.637C172.155 206.917 161.762 196.865 153.778 188.249C151.614 185.679 149.462 182.678 147.83 179.441ZM255.517 314.813L254.964 314.786L254.998 314.906C255.112 314.883 255.228 314.862 255.343 314.842L255.517 314.813ZM270.705 300.489C270.618 300.462 270.469 300.462 270.303 300.47C270.065 301.021 269.583 301.477 269.023 301.627L264.351 302.892C260.457 303.946 256.561 304.996 252.661 306.016C253.315 308.547 253.98 311.078 254.652 313.606C259.972 311.884 265.863 312.275 271.287 311.167C271.221 308.245 271.062 305.309 271.012 302.383C271 301.905 271.097 301.137 270.854 300.708C270.701 300.435 270.854 300.536 270.705 300.489ZM91.9905 310.322L91.8441 310.354C91.8928 310.487 91.9369 310.62 91.9783 310.755C91.9807 310.61 91.9829 310.467 91.9905 310.322ZM126.627 296.265C116.604 294.799 106.41 293.932 96.3 294.93C91.7273 295.552 87.0854 296.216 82.604 297.065C81.0454 299.47 82.7696 305.322 84.7099 307.173C85.2919 307.395 86.2927 306.964 86.8503 306.839C91.0341 305.889 95.2586 305.124 99.5045 304.527C99.6309 304.687 99.8159 304.79 100.045 304.768L101.021 304.678C106.877 304.141 112.784 303.748 118.653 304.084L118.696 304.118C122.656 304.409 126.601 305.036 130.544 305.49C132.101 301.398 131.833 296.703 126.627 296.265ZM199.559 162.823C199.947 164.142 200.412 165.423 200.991 166.669C201.595 166.5 202.429 166.635 202.873 167.018L203.062 166.984C203.582 166.885 204.206 166.733 204.368 166.715C211.53 165.719 210.984 175.353 211.01 180.194C211.054 182.622 211.103 185.051 211.176 187.479C213.226 186.777 215.966 188.039 217.757 189.155C216.355 184.461 214.706 179.842 212.868 175.305L212.52 174.421C211.072 170.76 209.468 167.054 206.391 164.505C204.052 163.889 201.786 163.778 199.559 162.823ZM147.632 160.406C140.976 158.019 138.339 163.444 136.493 168.855C134.316 174.847 133.722 181.445 134.084 187.892L134.309 187.594C136.758 184.311 140.289 178.892 144.754 179.763C144.71 177.272 144.8 174.536 145.275 171.949C144.998 170.28 144.927 168.594 145.12 166.907C145.221 164.793 147.512 165.114 149.02 164.815C150.325 163.941 151.905 163.589 153.493 164.204C154.691 164.044 155.889 163.891 157.087 163.739C157.271 163.333 157.419 162.924 157.574 162.508C154.258 161.819 150.944 161.109 147.632 160.406Z" fill="black"/>
<path fill-rule="evenodd" clip-rule="evenodd" d="M193.396 164.329C188.125 164.36 183.645 162.867 180.226 160.398C175.961 158.88 170.815 156.539 167.69 154.081C166.471 154.391 165.012 153.099 164.079 152.416C158.279 148.094 153.726 141.766 152.376 135.428C150.294 138.052 147.33 138.161 144.491 136.857C138.539 133.488 138.762 126.396 140.904 121.097C136.4 111.01 133.278 84.3833 140.154 73.6371C141.56 72.0292 143.624 71.0674 145.11 69.4185C146.433 67.9784 147.69 66.5054 149.229 65.3659C153.923 61.8003 162.008 59.9018 167.071 59.009C188.203 54.4494 204.439 62.6448 223.582 69.5576C222.48 72.307 220.956 74.8143 219.209 77.1521C223.962 78.9224 221.779 82.9025 218.092 84.9202L215.897 83.8555C219.319 96.0724 227.193 126.453 223.795 136.209C221.086 151.43 209.196 164.44 193.396 164.329Z" fill="white"/>
<path fill-rule="evenodd" clip-rule="evenodd" d="M196.45 165.64C189.605 166.341 181.474 164.726 176.911 159.177C176.775 159.011 176.715 158.823 176.712 158.642C176.708 158.44 176.776 158.245 176.893 158.093C177.016 157.933 177.192 157.822 177.393 157.786C177.563 157.756 177.756 157.775 177.955 157.887L178.375 158.12C181.491 159.838 184.727 161.302 188.259 161.929C191.895 162.575 195.597 162.502 199.201 161.683C205.765 160.19 211.078 156.383 214.988 151.362C219.352 145.759 221.972 138.647 222.64 131.534C223.45 122.915 221.572 114.347 219.63 106.001C217.589 97.2317 215.358 88.5068 212.766 79.8832C212.688 79.6236 212.667 79.3806 212.689 79.1568C211.925 78.858 211.111 78.9409 210.302 79.2138C208.822 79.7123 207.348 80.8364 206.119 81.7643C205.674 82.1004 205.26 82.4128 204.888 82.667C203.364 83.7078 201.697 84.4567 199.834 84.5745C197.897 84.6967 195.997 84.0957 194.237 83.3436C193.343 82.9615 192.463 82.5651 191.587 82.1703C189.092 81.0461 186.627 79.933 183.933 79.2096C180.323 78.2401 176.596 77.7625 172.857 77.7967C166.185 77.8576 159.492 79.5716 155.402 85.2034C153.746 87.4848 152.666 90.1069 153.508 92.9225C153.966 94.4541 154.831 95.8445 155.775 97.1234L156.099 97.5589C156.616 98.2609 157.066 98.96 157.202 99.7044C157.315 100.328 157.227 100.988 156.78 101.711C156.5 102.166 156.142 102.574 155.783 102.981C155.524 103.274 155.264 103.567 155.04 103.882C154.589 104.518 154.19 105.203 153.877 105.917C153.264 107.315 153.004 108.819 152.95 110.336C152.884 112.166 153.142 113.956 153.397 115.749C153.579 117.02 153.76 118.292 153.833 119.58C153.846 119.805 153.777 119.972 153.68 120.096C153.562 120.248 153.39 120.344 153.194 120.37C153.135 120.378 153.073 120.379 153.011 120.374C153.041 120.498 153.068 120.622 153.092 120.747C152.968 120.588 152.836 120.434 152.697 120.285C152.688 120.28 152.679 120.276 152.67 120.271C152.527 120.192 152.406 120.073 152.329 119.918C152.132 119.736 151.923 119.562 151.705 119.399C150.566 118.552 149.237 118.049 147.903 118.033C146.617 118.017 145.329 118.453 144.338 119.376C142.368 121.21 141.791 124.203 141.77 126.774C141.75 129.398 142.358 132.546 144.65 134.175C145.57 134.829 146.693 135.221 147.824 135.233C148.762 135.242 149.659 134.911 150.543 134.596C150.815 134.498 151.087 134.402 151.357 134.314C151.664 134.214 151.944 134.22 152.189 134.293C152.464 134.375 152.697 134.545 152.872 134.772C153.046 134.997 153.16 135.28 153.195 135.576C153.229 135.862 153.19 136.16 153.068 136.428C153.038 136.495 153.005 136.561 152.972 136.625L153.476 137.452C155.407 140.612 157.371 143.714 159.947 146.43C161.425 147.989 162.992 149.46 164.711 150.747L164.959 150.931C165.107 151.04 165.272 151.174 165.447 151.317C165.949 151.726 166.55 152.275 167.111 152.297C167.277 152.303 167.423 152.283 167.555 152.265C167.874 152.223 168.142 152.211 168.406 152.318C168.617 152.405 168.837 152.566 169.063 152.898C169.216 153.123 169.294 153.406 169.294 153.692C169.294 153.98 169.215 154.268 169.074 154.495C168.782 154.966 168.428 155.258 168.045 155.424C167.618 155.608 167.145 155.637 166.654 155.545C165.445 155.32 164.106 154.32 163.254 153.668L163.089 153.542C161.202 152.105 159.413 150.515 157.84 148.737C155.161 145.709 152.756 142.14 151.52 138.241C150.649 138.812 149.574 139.083 148.449 139.126C146.81 139.188 145.075 138.767 143.797 138.162C140.98 136.829 139.269 134.307 138.467 131.408C137.536 128.04 137.838 124.169 139.017 121.144C139.051 121.056 139.087 120.968 139.124 120.879C135.494 111.703 134.378 101.513 134.689 91.7203C134.835 87.1365 135.147 82.3272 136.231 77.8566C136.717 75.8529 137.561 73.9447 138.908 72.3672C139.676 71.4677 140.619 70.7674 141.566 70.069C142.386 69.4641 143.209 68.8606 143.902 68.1053L144.229 67.7467C144.3 67.6687 144.371 67.5908 144.442 67.513C145.638 66.1972 146.803 64.9204 148.254 63.8413C149.938 62.5902 151.796 61.6108 153.726 60.7975C157.885 59.046 162.361 57.9958 166.788 57.1833C176.368 55.4258 186.201 55.3391 195.663 57.8095C200.062 58.9579 204.332 60.5299 208.594 62.1C208.99 62.2457 209.385 62.3915 209.781 62.5369C213.093 63.754 216.407 64.9659 219.721 66.1778C221.261 66.741 222.801 67.3042 224.342 67.868C224.676 67.9904 225.003 68.254 225.189 68.5814C225.371 68.901 225.425 69.2736 225.278 69.6446C224.333 72.0339 223.141 74.2756 221.69 76.3689C222.194 76.7113 222.623 77.1666 222.948 77.6994C223.359 78.3734 223.602 79.1713 223.618 80.0178C223.674 82.8527 221.089 84.7744 218.944 86.1643C218.744 86.294 218.546 86.3706 218.355 86.4057C220.433 94.3354 222.422 102.292 224.113 110.311L224.229 110.867C225.97 119.26 227.094 127.825 225.447 136.33C224.029 143.653 220.735 150.721 215.587 156.177C210.543 161.523 203.774 164.889 196.45 165.64ZM151.381 117.358C150.485 114.52 150.01 111.432 150.353 108.554C150.569 106.746 151.114 105.005 152.001 103.411C152.509 102.498 153.128 101.653 153.804 100.857L154.037 100.589C154.155 100.453 154.273 100.327 154.309 100.17C154.33 100.078 154.309 99.9785 154.253 99.859C154.13 99.5944 153.9 99.3394 153.686 99.0905C153.549 98.9323 153.416 98.777 153.304 98.626C151.34 95.9725 149.875 92.8134 150.351 89.4485C150.816 86.1655 152.972 83.1053 155.267 80.7991C160.321 75.7209 168.156 74.5539 175.02 74.834C179.016 74.9969 183.005 75.6997 186.81 76.9274C188.687 77.5329 190.521 78.2703 192.304 79.1155L192.699 79.3046C192.912 79.4076 193.125 79.5118 193.338 79.616C194.731 80.298 196.13 80.9867 197.643 81.3575C200.597 82.0815 202.602 80.5566 204.708 79.0188C205.43 78.4918 206.163 77.9575 206.942 77.4886L207.102 77.394C208.508 76.5809 210.189 76.0338 211.803 76.0583C213.206 76.0796 214.559 76.5266 215.661 77.5828C215.887 77.7999 216.018 78.0366 216.079 78.2723C216.201 78.4428 216.299 78.6462 216.363 78.8865C216.758 80.3644 217.151 81.8434 217.542 83.3229L217.863 83.117C218.811 82.5021 219.842 81.7995 220.308 80.7709C220.487 80.3749 220.462 79.7154 220.236 79.2304C220.157 79.061 220.053 78.9103 219.908 78.8163C219.803 78.7479 219.677 78.7158 219.53 78.7276C219.172 78.7735 218.844 78.7213 218.566 78.604C218.245 78.4686 217.989 78.2458 217.823 77.9774C217.653 77.7025 217.575 77.3794 217.617 77.0442C217.653 76.756 217.777 76.4551 218.023 76.1723C219.641 74.3109 221.004 72.2576 222.039 70.0289L215.188 67.4994C212.746 66.598 210.303 65.6977 207.859 64.8008L206.52 64.3101C202.076 62.6833 197.606 61.0934 192.984 60.046C183.798 57.9646 174.22 58.4537 165.06 60.413L164.506 60.5323C160.662 61.3688 156.767 62.3808 153.239 64.14C151.507 65.0034 149.861 66.0534 148.447 67.3799C147.823 67.9657 147.258 68.6071 146.694 69.2476C145.903 70.1453 145.11 71.0405 144.17 71.7966L143.296 72.4945C141.997 73.5392 140.825 74.5571 140.092 76.1773C139.326 77.8711 138.96 79.7424 138.661 81.5656C137.909 86.1585 137.611 90.8249 137.64 95.4771C137.688 103.288 138.877 110.941 140.379 118.566C141.584 116.845 143.278 115.51 145.451 115.225C146.868 115.04 148.272 115.304 149.49 115.929C150.194 116.29 150.836 116.772 151.381 117.358ZM149.105 126.634C147.518 126.02 145.852 125.819 144.173 126.113C143.997 126.143 143.829 126.107 143.688 126.025C143.545 125.942 143.432 125.811 143.371 125.666C143.301 125.499 143.297 125.318 143.359 125.157C143.413 125.017 143.517 124.882 143.706 124.791C145.524 123.925 147.545 123.543 149.551 123.815L149.749 123.843C150.774 123.995 152.216 124.314 153.297 124.943C154.147 125.437 154.769 126.118 154.923 127.007C155.004 127.471 154.889 127.955 154.621 128.306C154.362 128.645 153.966 128.871 153.454 128.856C152.551 128.831 152.016 128.45 151.372 127.956C151.294 127.896 151.214 127.835 151.131 127.773C150.509 127.308 149.83 126.914 149.105 126.634Z" fill="black"/>
<path fill-rule="evenodd" clip-rule="evenodd" d="M197.713 144.766C196.117 144.116 194.692 143.032 193.651 141.647C193.289 141.165 193.195 140.657 193.271 140.192C193.356 139.669 193.666 139.195 194.089 138.877C194.513 138.558 195.044 138.401 195.556 138.481C196.002 138.551 196.445 138.794 196.797 139.299L196.87 139.4C197.489 140.236 198.296 140.922 199.215 141.364C200.101 141.79 201.092 141.989 202.118 141.873C204.071 141.653 205.417 140.599 206.848 139.168C207.025 138.987 207.202 138.8 207.381 138.611C207.493 138.439 207.65 138.329 207.823 138.271C208.016 138.207 208.234 138.21 208.433 138.28C208.626 138.347 208.798 138.474 208.913 138.643C209.023 138.804 209.085 139.003 209.065 139.231C208.934 140.714 208.157 142.038 207.053 143.078C205.827 144.232 204.202 145.031 202.672 145.311C200.986 145.62 199.269 145.399 197.713 144.766ZM203.467 121.88C205.26 122.968 207.993 125.505 206.064 128.202C203.793 130.58 200.523 127.853 198.912 126.62C197.418 125.664 195.739 128.122 197.126 129.238C208.768 137.841 213.493 122.165 204.374 120.601C203.37 120.429 202.997 121.544 203.467 121.88ZM182.603 111.873C182.802 109.419 186.547 108.861 186.92 111.29C187.254 113.466 186.861 115.465 185.879 117.424C184.941 119.295 182.582 118.422 182.404 116.718C182.165 114.434 182.48 113.4 182.603 111.873ZM211.117 110.787C211.64 110.104 212.394 109.638 213.297 109.901C216.12 110.724 215.288 114.724 214.296 116.67C213.758 117.727 212.017 117.995 211.23 117.064C209.947 115.547 209.333 112.516 210.964 111.02C211.008 110.943 211.057 110.865 211.117 110.787ZM185.839 101.133L186.285 101.055C187.664 100.817 189.379 100.588 190.355 101.695C190.872 102.282 191.051 103.372 190.355 103.934C189.131 104.922 187.779 104.539 186.312 104.623C185.104 104.692 183.943 104.892 182.779 105.224C180.225 105.952 178.145 107.282 175.964 108.742C175.678 108.933 175.386 108.568 175.522 108.301C176.781 105.84 179.221 103.819 181.665 102.586C182.969 101.929 184.396 101.383 185.839 101.133ZM208.544 100.031L208.886 100.1C212.599 100.875 217.424 102.422 219.183 106.063C219.25 106.578 219.179 106.688 219.121 106.76L219.102 106.784C219.055 106.845 219.017 106.93 218.793 107C218.731 106.986 218.669 106.97 218.605 106.953C217.799 106.743 217.161 106.452 216.544 106.151L215.874 105.822C215.098 105.442 214.314 105.075 213.484 104.805C211.712 104.228 209.889 103.822 208.038 103.605C207.636 103.558 207.25 103.423 206.945 103.191C206.656 102.971 206.435 102.667 206.334 102.262C206.204 101.739 206.241 101.342 206.523 100.87C206.734 100.515 207.037 100.269 207.385 100.128C207.739 99.9843 208.143 99.9504 208.544 100.031Z" fill="black"/>
<path fill-rule="evenodd" clip-rule="evenodd" d="M231.045 103.835C230.849 103.803 230.653 103.772 230.458 103.744C230.305 103.657 230.126 103.59 229.917 103.55C229.441 103.43 228.968 103.348 228.496 103.305C221.72 101.783 206.044 103.944 205.397 109.714C203.239 110.433 201.372 109.789 198.871 109.853C196.967 101.912 164.055 103.033 162.473 107.821C162.467 107.819 162.461 107.818 162.455 107.816C160.934 107.346 158.691 107.459 156.951 107.385C153.234 107.307 149.513 107.638 145.876 108.42C139.066 109.5 129.772 110.765 134.508 119.252C134.509 119.253 134.51 119.255 134.511 119.256L134.512 119.255C135.328 120.09 136.713 119.418 136.765 118.288C135.172 114.267 138.769 113.784 141.536 112.629C148.422 110.16 155.432 109.818 162.553 110.582C163.089 111.211 163.902 111.76 164.761 112.047C169.522 112.836 167.013 116.361 170.023 116.873C169.47 129.16 184.418 135.867 193.079 127.79C196.537 124.416 197.361 119.418 198.163 114.913C198.587 114.818 198.856 114.586 199.014 114.28C200.033 113.264 200.674 112.326 202.69 112.047C204.706 111.768 206.258 112.328 206.468 112.499C206.521 112.606 206.578 112.712 206.644 112.819C206.736 112.978 206.861 113.105 207.004 113.205C205.013 125.44 214.531 133.178 224.139 126.832C228.314 122.913 229.197 116.912 229.371 111.556C229.937 111.215 230.295 110.555 230.099 109.724C229.829 108.58 230.462 107.588 231.471 107.091C232.781 106.444 232.549 104.084 231.045 103.835ZM189.758 109.64C188.565 109.378 188.056 111.213 189.252 111.476C190.099 111.662 190.817 112.088 191.303 112.81L191.354 112.889C192.005 113.923 193.651 112.968 192.995 111.928C192.258 110.757 191.112 109.937 189.758 109.64ZM224.689 108.502C224.269 108.206 223.632 108.426 223.388 108.844C223.12 109.304 223.296 109.816 223.689 110.116L223.73 110.146C224.091 110.4 224.443 110.855 224.487 111.322L224.491 111.38C224.538 112.601 226.44 112.608 226.392 111.38C226.346 110.18 225.649 109.177 224.689 108.502Z" fill="black"/>
</svg>
